<svg width="135.000000" height="138.000015" viewBox="0 0 135 138" fill="none" xmlns="http://www.w3.org/2000/svg" xmlns:xlink="http://www.w3.org/1999/xlink">
	<desc>
			Created with Pixso.
	</desc>
	<defs/>
	<path id="Vector 38" d="M69.5393 0.139952C71.2241 20.771 72.9088 41.4021 74.67 62.9706L134.828 67.9266C134.885 68.6213 134.943 69.3159 135 70.0103L74.704 75.2206C72.9476 96.3876 71.2297 117.093 69.5118 137.798L67.7838 138C66.5509 123.343 65.3197 108.685 64.09 94.0278C62.355 72.9911 66.6084 75.4186 43.6569 73.4829C30.8423 72.4021 18.0095 71.5405 5.1886 70.5345C4.52954 70.4828 3.90405 69.9999 0 68.2821L62.4226 62.9359C64.2341 41.688 66.0112 20.844 67.7883 0L69.5393 0.139952Z" fill="#FFFFFF" fill-opacity="1.000000" fill-rule="nonzero"/>
</svg>
